<?xml version="1.0" encoding="UTF-8" standalone="no"?>
<!-- Created with Inkscape (http://www.inkscape.org/) -->

<svg
   version="1.1"
   id="svg25"
   xml:space="preserve"
   width="362.54666"
   height="62.759998"
   viewBox="0 0 362.54666 62.759998"
   xmlns="http://www.w3.org/2000/svg"
   xmlns:svg="http://www.w3.org/2000/svg"><defs
     id="defs29" /><g
     id="g31"
     transform="matrix(1.3333333,0,0,-1.3333333,0,62.76)"><g
       id="g33"
       transform="scale(0.1)"><path
         d="m 1539.23,349.793 c -26.74,24.598 -75.94,41.621 -120.25,41.621 -68.07,0 -136.01,-28.465 -137.25,-99.371 -1.28,-73.469 71.44,-98.789 129.91,-102.352 42.59,-2.011 58.86,-14.32 58.61,-28.878 0.36,-16.493 -26.6,-32.317 -53.3,-31.219 -33.06,1.211 -69.88,9.219 -108.13,41.558 l -42.35,-58.828 c 52.66,-45.2537 101.53,-53.8045 147.96,-54.6287 99.84,-1.7383 138.94,50.9807 139.18,101.6637 1.43,82.047 -73.3,100.079 -134.97,103.055 -30.52,1.16 -51.93,11.027 -51.63,28.129 0.27,15.195 21.49,31.117 51.38,30.598 28.62,-0.5 55.88,-8.508 79.12,-25.368 l 41.72,54.02"
         style="fill:#c71646;fill-opacity:1;fill-rule:nonzero;stroke:none"
         id="path35" /><path
         d="M 867.816,391.5 C 768.688,391.5 706.5,319.898 706.5,227.121 c 0,-95.539 60.336,-169.3437 170.547,-169.3437 45.566,0 90.508,14.4297 129.063,48.3357 l -48.391,54.883 c -21.563,-19.297 -55.789,-29.414 -79.813,-29.414 -49.871,0 -83.047,31.406 -87.347,65.238 H 1019.9 C 1038.99,326.52 971.266,391.5 867.816,391.5 M 942.895,259.945 H 793.676 c 2.351,25.403 28.453,58.934 73.652,58.934 48.828,0 75.735,-31.238 75.567,-58.934"
         style="fill:#c71646;fill-opacity:1;fill-rule:nonzero;stroke:none"
         id="path37" /><path
         d="m 2271.4,224.633 c 0,106.961 -74.23,166.875 -165.79,166.875 -91.57,0 -165.8,-59.914 -165.8,-166.875 0,-106.953 74.23,-166.8557 165.8,-166.8557 91.56,0 165.79,65.2497 165.79,166.8557 m -89.84,0 c 0,-44.555 -22.27,-88.774 -75.95,-88.774 -53.08,0 -75.95,46.274 -75.95,88.774 0,42.519 23.49,88.793 75.95,88.793 53.07,0 75.95,-46.274 75.95,-88.793"
         style="fill:#c71646;fill-opacity:1;fill-rule:nonzero;stroke:none"
         id="path39" /><path
         d="m 1278.88,380.172 c -11.68,6.07 -25.91,10.84 -41.32,10.84 -29.5,0 -63.79,-20 -83.29,-48.547 l -16.7,42.621 h -70.59 V 64.1836 h 89.85 l 0.67,166.2504 c 0,47.949 29.88,76.007 68.12,76.007 3.52,0 9.46,-1.07 15.21,-2.375 l 38.05,76.106"
         style="fill:#c71646;fill-opacity:1;fill-rule:nonzero;stroke:none"
         id="path41" /><path
         d="m 680.836,385.086 h -71.672 v 77.918 L 519.316,440.355 V 178.684 c 0,-95.2035 45.5,-120.9067 107.043,-120.9067 29.426,0 48.246,6.8165 79.688,22.3008 L 675.168,141.84 c -10.012,-4.543 -23.934,-9.024 -32.949,-9.024 -16.684,0 -33.055,5.387 -33.055,46.543 v 126.567 h 71.672 v 79.16"
         style="fill:#c71646;fill-opacity:1;fill-rule:nonzero;stroke:none"
         id="path43" /><path
         d="M 91.9922,64.1836 H 0 V 385.086 H 91.9922 V 64.1836"
         style="fill:#c71646;fill-opacity:1;fill-rule:nonzero;stroke:none"
         id="path45" /><path
         d="M 462.086,64.1992 V 234.035 c 0,124.473 -61.488,157.461 -130.223,157.461 -34.508,0 -66.734,-11.746 -89.054,-47.91 l -14.981,41.5 H 157.246 V 64.1992 h 89.84 V 235.332 c 0,47.078 23.25,75.934 64.75,75.285 42.711,0 60.41,-26.012 60.41,-75.285 V 64.1992 h 89.84"
         style="fill:#c71646;fill-opacity:1;fill-rule:nonzero;stroke:none"
         id="path47" /><path
         d="M 1898.1,64.1992 V 234.035 c 0,124.473 -61.49,157.461 -130.22,157.461 -31.49,0 -71.95,-19.781 -84.78,-46.719 v 125.879 h -89.85 V 64.1992 h 89.85 V 235.332 c 0,47.078 23.25,75.934 64.74,75.285 42.72,0 60.41,-26.012 60.41,-75.285 V 64.1992 h 89.85"
         style="fill:#c71646;fill-opacity:1;fill-rule:nonzero;stroke:none"
         id="path49" /><path
         d="m 2639.67,226.914 c 0,105.504 -62.66,163.52 -152.99,163.52 -35.59,0 -67.41,-14.61 -92.33,-37.446 l -11.05,32.196 h -69.64 V 0.00390625 h 89.85 V 92.6172 c 23.59,-18.8281 51.26,-30.293 83.17,-30.293 90.33,0 152.99,64.3598 152.99,164.5898 m -88.01,0 c 0,-43.953 -21.83,-86.785 -75.52,-86.785 -53.09,0 -75.97,44.863 -75.97,86.785 0,41.926 23.49,86.496 75.97,86.496 53.07,0 75.52,-44.57 75.52,-86.496"
         style="fill:#c71646;fill-opacity:1;fill-rule:nonzero;stroke:none"
         id="path51" /><path
         d="m 2674.9,373.227 c -24.35,0 -38.47,17.421 -38.47,39.179 0,21.77 14.12,39.18 38.47,39.18 24.36,0 38.48,-17.41 38.48,-39.18 0,-21.758 -14.12,-39.179 -38.48,-39.179 m 0,83.851 c -28.4,0 -43.94,-21.051 -43.94,-44.672 0,-23.859 15.54,-44.672 43.94,-44.672 28.28,0 44.18,21.168 44.18,44.672 0,23.621 -15.9,44.672 -44.18,44.672"
         style="fill:#c71646;fill-opacity:1;fill-rule:nonzero;stroke:none"
         id="path53" /><path
         d="m 2664.57,432.746 h 10.81 c 9.84,0 14.04,-2.633 14.04,-8.777 0,-8.391 -9.7,-9.305 -13.87,-9.305 h -10.98 z m 19.44,-23.418 c 7.97,2.082 12.49,7.301 12.49,14.567 0,4.511 -1.52,8.101 -4.51,10.683 -3.44,2.949 -8.76,4.438 -15.84,4.438 h -0.02 -18.38 v -52.059 h 6.82 v 21.438 h 11.72 c 0.23,0 0.47,0 0.71,0.011 l 12.36,-21.449 h 7.92 l -13.27,22.371"
         style="fill:#c71646;fill-opacity:1;fill-rule:nonzero;stroke:none"
         id="path55" /></g></g></svg>
